<?xml version="1.0" standalone="no"?><!DOCTYPE svg PUBLIC "-//W3C//DTD SVG 1.1//EN" "http://www.w3.org/Graphics/SVG/1.1/DTD/svg11.dtd"><svg height="1024" node-id="1" sillyvg="true" template-height="1024" template-width="1024" version="1.1" viewBox="0 0 1024 1024" width="1024" xmlns="http://www.w3.org/2000/svg" xmlns:xlink="http://www.w3.org/1999/xlink"><defs node-id="38"><linearGradient gradientUnits="userSpaceOnUse" id="paint0_linear_7310_7345" node-id="28" spreadMethod="pad" x1="667.85596" x2="667.85596" y1="34.167995" y2="759.37994"><stop offset="0" stop-color="#87b0ff"></stop><stop offset="1" stop-color="#617af7"></stop></linearGradient><linearGradient gradientUnits="userSpaceOnUse" id="paint1_linear_7310_7345" node-id="31" spreadMethod="pad" x1="710.269" x2="544.032" y1="92.9182" y2="798.82"><stop offset="0" stop-color="#87b0ff"></stop><stop offset="1" stop-color="#617af7"></stop></linearGradient><linearGradient gradientUnits="userSpaceOnUse" id="paint2_linear_7310_7345" node-id="34" spreadMethod="pad" x1="122.88" x2="576" y1="384" y2="1141.76"><stop offset="0" stop-color="#ffffff"></stop><stop offset="1" stop-color="#f9fcff"></stop></linearGradient><filter height="633.493" id="filter0_f_7310_7345" node-id="15" width="797.806" x="132.327" y="307.2"><feFlood color-interpolation-filters="sRGB" flood-color="#000000" flood-opacity="0" result="BackgroundImageFix"></feFlood><feBlend color-interpolation-filters="sRGB" in="SourceGraphic" in2="BackgroundImageFix" mode="normal" result="shape"></feBlend><feGaussianBlur color-interpolation-filters="sRGB" in="shape" result="effect1_foregroundBlur_7310_7345" stdDeviation="38.4 38.4"></feGaussianBlur></filter><filter height="413.728" id="filter1_d_7310_7345" node-id="19" width="345.175" x="322.543" y="467.284"><feFlood color-interpolation-filters="sRGB" flood-color="#000000" flood-opacity="0" result="BackgroundImageFix"></feFlood><feColorMatrix color-interpolation-filters="sRGB" in="SourceAlpha" result="hardAlpha" type="matrix" values="0 0 0 0 0 0 0 0 0 0 0 0 0 0 0 0 0 0 127 0"></feColorMatrix><feOffset color-interpolation-filters="sRGB" dx="4.45867" dy="22.2933" in="hardAlpha" result="result3"></feOffset><feGaussianBlur color-interpolation-filters="sRGB" in="result3" result="result4" stdDeviation="22.2933 22.2933"></feGaussianBlur><feComposite color-interpolation-filters="sRGB" in="result4" in2="hardAlpha" operator="out" result="result5"></feComposite><feColorMatrix color-interpolation-filters="sRGB" in="result5" result="result6" type="matrix" values="0 0 0 0 0.423529 0 0 0 0 0.541177 0 0 0 0 0.980392 0 0 0 0.4 0"></feColorMatrix><feBlend color-interpolation-filters="sRGB" in="result6" in2="BackgroundImageFix" mode="normal" result="effect1_dropShadow_7310_7345"></feBlend><feBlend color-interpolation-filters="sRGB" in="SourceGraphic" in2="effect1_dropShadow_7310_7345" mode="normal" result="shape"></feBlend></filter></defs><g node-id="114"><path d="M 392.05 54.61 L 924.35 179.96 L 931.49 181.97 L 938.25 184.45 L 944.66 187.41 L 950.75 190.85 L 956.57 194.78 L 961.99 199.07 L 967.01 203.73 L 971.67 208.78 L 975.93 214.18 L 979.74 219.84 L 983.11 225.77 L 986.04 232.00 L 988.48 238.42 L 990.41 245.00 L 991.83 251.76 L 992.75 258.73 L 993.11 265.71 L 992.90 272.77 L 992.10 279.92 L 990.71 287.20 L 865.36 819.51 L 863.35 826.64 L 860.87 833.40 L 857.91 839.81 L 854.47 845.90 L 850.54 851.72 L 846.25 857.14 L 841.59 862.17 L 836.54 866.83 L 831.14 871.09 L 825.48 874.90 L 819.55 878.26 L 813.32 881.19 L 806.90 883.63 L 800.32 885.56 L 793.56 886.99 L 786.59 887.90 L 779.61 888.26 L 772.55 888.05 L 765.40 887.26 L 758.12 885.87 L 225.81 760.51 L 218.68 758.51 L 211.92 756.02 L 205.51 753.06 L 199.42 749.63 L 193.60 745.70 L 188.18 741.41 L 183.15 736.74 L 178.49 731.69 L 174.23 726.29 L 170.42 720.63 L 167.06 714.70 L 164.13 708.48 L 161.69 702.06 L 159.76 695.47 L 158.33 688.71 L 157.42 681.75 L 157.06 674.77 L 157.27 667.71 L 158.06 660.55 L 159.45 653.27 L 284.81 120.97 L 286.81 113.83 L 289.30 107.07 L 292.26 100.66 L 295.70 94.57 L 299.62 88.75 L 303.91 83.33 L 308.58 78.31 L 313.63 73.65 L 319.03 69.39 L 324.69 65.58 L 330.62 62.21 L 336.84 59.28 L 343.26 56.84 L 349.85 54.91 L 356.61 53.49 L 363.57 52.57 L 370.55 52.21 L 377.61 52.42 L 384.77 53.22 L 392.05 54.61 Z" fill="url(#paint0_linear_7310_7345)" fill-rule="nonzero" group-id="1" node-id="87" stroke="none" target-height="836.052" target-width="836.052" target-x="157.05708" target-y="52.211205"></path></g><path d="M 128.00 256.00 C 128.00 232.44 152.36 213.33 182.40 213.33 L 798.93 213.33 C 828.98 213.33 853.33 232.44 853.33 256.00 L 853.33 384.00 L 128.00 384.00 L 128.00 256.00 Z" fill="#617af7" fill-rule="nonzero" node-id="90" stroke="none" target-height="170.66699" target-width="725.333" target-x="128" target-y="213.332"></path><path d="M 170.67 298.67 C 170.67 275.10 189.77 256.00 213.33 256.00 C 236.90 256.00 256.00 275.10 256.00 298.67 C 256.00 322.23 236.90 341.33 213.33 341.33 C 189.77 341.33 170.67 322.23 170.67 298.67 Z" fill="#fc9696" fill-rule="nonzero" node-id="92" stroke="none" target-height="85.33301" target-width="85.33299" target-x="170.667" target-y="255.999"></path><path d="M 298.67 298.67 C 298.67 275.10 317.77 256.00 341.33 256.00 C 364.90 256.00 384.00 275.10 384.00 298.67 C 384.00 322.23 364.90 341.33 341.33 341.33 C 317.77 341.33 298.67 322.23 298.67 298.67 Z" fill="#ffd771" fill-rule="nonzero" node-id="94" stroke="none" target-height="85.33301" target-width="85.33301" target-x="298.667" target-y="255.999"></path><path d="M 426.67 298.67 C 426.67 275.10 445.77 256.00 469.33 256.00 C 492.90 256.00 512.00 275.10 512.00 298.67 C 512.00 322.23 492.90 341.33 469.33 341.33 C 445.77 341.33 426.67 322.23 426.67 298.67 Z" fill="#67eb84" fill-rule="nonzero" node-id="96" stroke="none" target-height="85.33301" target-width="85.33301" target-x="426.667" target-y="255.999"></path><path d="M 128.00 389.12 C 128.00 386.29 130.29 384.00 133.12 384.00 L 848.21 384.00 C 851.04 384.00 853.33 386.29 853.33 389.12 L 853.33 851.40 C 853.33 876.03 833.37 896.00 808.74 896.00 L 172.59 896.00 C 147.97 896.00 128.00 876.03 128.00 851.40 L 128.00 389.12 Z" fill="#f5faff" fill-rule="nonzero" node-id="98" stroke="none" target-height="512" target-width="725.333" target-x="128" target-y="384"></path><path d="M 852.25 861.23 C 838.88 864.58 824.53 864.88 810.18 861.50 L 277.88 736.14 C 229.94 724.85 200.23 676.84 211.52 628.90 L 269.19 384.00 L 853.33 384.00 L 853.33 851.41 C 853.33 854.79 852.96 858.07 852.25 861.23 Z" fill="url(#paint1_linear_7310_7345)" fill-opacity="0.1" fill-rule="evenodd" filter="url(#filter0_f_7310_7345)" group-id="2" node-id="102" stroke="none" target-height="480.87598" target-width="653.1" target-x="200.233" target-y="384"></path><path d="M 490.67 515.47 C 502.45 515.47 512.00 525.02 512.00 536.80 L 512.00 792.80 C 512.00 804.58 502.45 814.13 490.67 814.13 L 490.67 814.13 C 478.88 814.13 469.33 804.58 469.33 792.80 L 469.33 536.80 C 469.33 525.02 478.88 515.47 490.67 515.47 L 490.67 515.47 Z" fill="#ffffff" fill-rule="evenodd" filter="url(#filter1_d_7310_7345)" group-id="3" node-id="107" stroke="none" target-height="298.66595" target-width="42.66696" target-x="469.334" target-y="515.465"></path><path d="M 451.34 508.00 C 471.81 483.44 509.54 483.44 530.00 508.00 L 613.73 608.47 C 621.27 617.52 620.05 630.97 611.00 638.51 L 611.00 638.51 C 601.95 646.05 588.49 644.83 580.95 635.78 L 530.00 574.65 C 509.54 550.08 471.81 550.08 451.34 574.65 L 400.39 635.78 C 392.85 644.83 379.40 646.05 370.35 638.51 L 370.35 638.51 C 361.30 630.97 360.07 617.52 367.62 608.47 L 451.34 508.00 Z" fill="#ffffff" fill-rule="evenodd" filter="url(#filter1_d_7310_7345)" group-id="3" node-id="109" stroke="none" target-height="162.61899" target-width="261.196" target-x="360.074" target-y="483.436"></path><path d="M 134.69 390.69 L 846.64 390.69 L 846.64 851.41 C 846.64 872.34 829.68 889.31 808.75 889.31 L 172.59 889.31 C 151.66 889.31 134.69 872.34 134.69 851.41 L 134.69 390.69 Z" fill="none" node-id="112" stroke="url(#paint2_linear_7310_7345)" stroke-linecap="butt" stroke-width="13.376" target-height="498.62402" target-width="711.95703" target-x="134.688" target-y="390.688"></path></svg>