<?xml version="1.0" standalone="no"?><!DOCTYPE svg PUBLIC "-//W3C//DTD SVG 1.1//EN" "http://www.w3.org/Graphics/SVG/1.1/DTD/svg11.dtd"><svg t="1710523381770" class="icon" viewBox="0 0 1237 1024" version="1.1" xmlns="http://www.w3.org/2000/svg" p-id="1780" xmlns:xlink="http://www.w3.org/1999/xlink" width="241.6015625" height="200"><path d="M1158.674766 822.430545V194.948228c0-76.112946-79.908605-69.120943-79.908605-69.120943H624.885287a59.931453 59.931453 0 0 1-39.954302-12.385834s-19.977151-28.367555-53.538765-73.316144a84.902892 84.902892 0 0 0-77.511346-39.954303H99.885756c-97.688269 0-99.885756 81.506777-99.885756 81.506777v735.958248c0 90.696266 79.908605 79.908605 79.908605 79.908604h1005.849559c84.902892 0 72.916602-75.31386 72.916602-75.313859z m0 0" fill="#96DDFF" p-id="1781" data-spm-anchor-id="a313x.search_index.0.i6.6a843a812anpLP" class=""></path><path d="M0 180.165136m59.931453 0l1038.811859 0q59.931453 0 59.931454 59.931454l0 659.245987q0 59.931453-59.931454 59.931453l-1038.811859 0q-59.931453 0-59.931453-59.931453l0-659.245987q0-59.931453 59.931453-59.931454Z" fill="#66CCF9" p-id="1782" data-spm-anchor-id="a313x.search_index.0.i5.6a843a812anpLP" class=""></path><path d="M0 839.411124m9.988576 0l1138.697614 0q9.988576 0 9.988576 9.988575l0 0q0 9.988576-9.988576 9.988576l-1138.697614 0q-9.988576 0-9.988576-9.988576l0 0q0-9.988576 9.988576-9.988575Z" fill="#85D8F9" p-id="1783"></path><path d="M0 879.365426m9.988576 0l1138.697614 0q9.988576 0 9.988576 9.988575l0 0q0 9.988576-9.988576 9.988576l-1138.697614 0q-9.988576 0-9.988576-9.988576l0 0q0-9.988576 9.988576-9.988575Z" fill="#85D8F9" p-id="1784"></path><path d="M19.977151 919.319728m9.988576 0l1098.743312 0q9.988576 0 9.988576 9.988576l0 0q0 9.988576-9.988576 9.988575l-1098.743312 0q-9.988576 0-9.988576-9.988575l0 0q0-9.988576 9.988576-9.988576Z" fill="#85D8F9" p-id="1785"></path></svg>